<?xml version="1.0" encoding="UTF-8" standalone="no"?>
<!DOCTYPE svg PUBLIC "-//W3C//DTD SVG 1.1//EN" "http://www.w3.org/Graphics/SVG/1.1/DTD/svg11.dtd">
<!-- Created with Vectornator (http://vectornator.io/) -->
<svg height="100%" stroke-miterlimit="10" style="fill-rule:nonzero;clip-rule:evenodd;stroke-linecap:round;stroke-linejoin:round;" version="1.1" viewBox="0 0 640 640" width="100%" xml:space="preserve" xmlns="http://www.w3.org/2000/svg" xmlns:vectornator="http://vectornator.io" xmlns:xlink="http://www.w3.org/1999/xlink">
<defs/>
<g id="Untitled" vectornator:layerName="Untitled">
<path d="M147.969 20C139.645 20 131.903 24.323 127.531 31.4062C127.292 31.7932 127.009 32.2592 126.938 32.375C113.232 54.5539 95.2032 83.7527 81.2812 106.281C81.2717 106.297 80.9352 106.793 80.5938 107.344C75.7953 115.088 75.7955 124.881 80.5938 132.625C80.9325 133.172 81.2739 133.738 81.2812 133.75C95.2014 156.276 113.236 185.453 126.938 207.625C128.852 210.727 132.68 216.93 134.594 220.031C134.599 220.039 134.62 220.055 134.625 220.062C136.733 223.47 140.936 230.282 143.062 233.719C156.99 256.249 175.041 285.447 188.75 307.625C190.656 310.719 194.469 316.906 196.375 320C194.469 323.094 190.656 329.281 188.75 332.375C175.041 354.553 156.989 383.751 143.062 406.281C140.937 409.711 136.687 416.57 134.562 420C134.552 420.017 134.542 420.014 134.531 420.031C132.603 423.16 128.821 429.318 126.938 432.375C113.232 454.554 95.2032 483.753 81.2812 506.281C81.6074 505.753 81.9464 505.251 82.3125 504.75C82.2074 504.894 82.7248 504.29 82.7188 504.312C82.2209 504.957 81.7113 505.589 81.2812 506.281C79.2122 509.613 75.0545 516.272 72.875 519.781C72.833 519.849 72.7913 519.901 72.75 519.969C72.6695 520.101 72.67 520.151 72.5938 520.281C70.6393 523.44 66.9946 529.353 65.125 532.375C55.6649 547.683 44.4278 565.886 33.625 583.375C23.7483 599.364 35.2375 620 54.0312 620C75.99 620 98.9525 620 118.438 620C119.133 620 120.325 620 121.219 620C129.533 620 137.251 615.695 141.625 608.625C141.702 608.5 141.98 608.062 142.25 607.625C155.957 585.445 173.986 556.245 187.906 533.719C190.031 530.289 194.281 523.461 196.406 520.031C196.409 520.027 196.403 520.005 196.406 520C198.32 516.906 202.149 510.719 204.062 507.625C217.769 485.445 235.798 456.245 249.719 433.719C251.844 430.289 256.094 423.461 258.219 420.031C258.222 420.027 258.216 420.004 258.219 420C260.133 416.906 263.961 410.719 265.875 407.625C279.582 385.445 297.611 356.244 311.531 333.719C311.54 333.704 311.876 333.178 312.219 332.625C317.016 324.881 317.017 315.119 312.219 307.375C311.887 306.84 311.552 306.314 311.531 306.281C311.526 306.273 311.536 306.258 311.531 306.25C297.612 283.727 279.578 254.549 265.875 232.375C263.961 229.281 260.133 223.093 258.219 220C256.094 216.57 251.844 209.711 249.719 206.281C235.798 183.755 217.769 154.555 204.062 132.375C202.148 129.273 198.32 123.07 196.406 119.969C198.29 116.931 202.118 110.791 204.062 107.656C204.168 107.486 204.243 107.297 204.344 107.125C213.74 91.9199 224.857 73.9567 235.562 56.625C245.439 40.6357 233.95 20 215.156 20C193.187 20 170.212 20 150.719 20C150.031 20 148.851 20 147.969 20ZM395.188 20C386.864 20 379.121 24.3229 374.75 31.4062C374.511 31.7929 374.228 32.259 374.156 32.375C360.447 54.5529 342.396 83.7509 328.469 106.281C328.269 106.603 327.968 107.062 327.812 107.312C323.014 115.057 323.014 124.849 327.812 132.594C327.875 132.694 328.168 133.214 328.5 133.75C338.53 149.981 350.262 168.96 361.406 187C370.785 202.183 392.84 202.183 402.219 187C413.368 168.951 425.093 149.952 435.125 133.719C437.25 130.289 441.5 123.43 443.625 120C445.539 116.906 449.367 110.719 451.281 107.625C460.741 92.3169 471.978 74.1136 482.781 56.625C492.658 40.6357 481.169 20 462.375 20C440.406 20 417.431 20 397.938 20C397.25 20 396.07 20 395.188 20ZM381.812 441.625C373.949 441.624 366.097 445.412 361.406 453C350.251 471.045 338.509 490.039 328.469 506.281C328.269 506.604 327.967 507.063 327.812 507.312C323.014 515.057 323.014 524.849 327.812 532.594C327.875 532.694 328.168 533.214 328.5 533.75C342.42 556.276 360.455 585.453 374.156 607.625C374.246 607.771 374.525 608.228 374.75 608.594C375.306 609.496 376.059 610.222 376.719 611.031C376.761 611.083 376.801 611.136 376.844 611.188C376.822 611.163 376.894 611.24 376.875 611.219C381.397 616.655 388.001 620 395.188 620C396.07 620 397.25 620 397.938 620C417.43 620 440.406 620 462.375 620C481.169 620 492.658 599.364 482.781 583.375C471.978 565.886 460.741 547.683 451.281 532.375C449.367 529.281 445.539 523.094 443.625 520C441.504 516.576 437.254 509.717 435.125 506.281C425.093 490.047 413.368 471.049 402.219 453C397.53 445.41 389.676 441.626 381.812 441.625Z" fill="#ffffff" fill-rule="nonzero" opacity="1" stroke="none" vectornator:layerName="Curve 5"/>
</g>
</svg>
