<?xml version="1.0" encoding="UTF-8" standalone="no"?>
<!DOCTYPE svg PUBLIC "-//W3C//DTD SVG 1.1//EN" "http://www.w3.org/Graphics/SVG/1.1/DTD/svg11.dtd">
<!-- Created with Vectornator (http://vectornator.io/) -->
<svg height="100%" stroke-miterlimit="10" style="fill-rule:nonzero;clip-rule:evenodd;stroke-linecap:round;stroke-linejoin:round;" version="1.1" viewBox="0 0 200 200" width="100%" xml:space="preserve" xmlns="http://www.w3.org/2000/svg" xmlns:vectornator="http://vectornator.io" xmlns:xlink="http://www.w3.org/1999/xlink">
<defs>
<path d="M149.509 15.7143L134.241 42.1429L164.732 42.1429L149.509 15.7143Z" id="Fill"/>
<path d="M83.4821 15.7589L68.2143 42.1429L98.7054 42.1429L83.4821 15.7589Z" id="Fill_2"/>
<path d="M68.2589 43.5714L83.5268 70L98.75 43.5714L68.2589 43.5714Z" id="Fill_3"/>
<path d="M134.196 43.5714L149.464 70L164.732 43.5714L134.196 43.5714Z" id="Fill_4"/>
<path d="M132.991 44.2857L117.723 70.7143L148.259 70.7143L132.991 44.2857Z" id="Fill_5"/>
<path d="M100 44.3304L84.7768 70.7143L115.223 70.7143L100 44.3304Z" id="Fill_6"/>
<path d="M84.7321 72.1429L100 98.5714L115.268 72.1429L84.7321 72.1429Z" id="Fill_7"/>
<path d="M117.723 72.1429L132.991 98.5714L148.214 72.1429L117.723 72.1429Z" id="Fill_8"/>
<path d="M116.473 72.8571L101.25 99.2857L131.741 99.2857L116.473 72.8571Z" id="Fill_9"/>
<path d="M101.25 100.714L116.473 127.098L131.741 100.714L101.25 100.714Z" id="Fill_10"/>
<path d="M100 101.429L84.7321 127.857L115.268 127.857L100 101.429Z" id="Fill_11"/>
<path d="M132.991 101.473L117.723 127.857L148.214 127.857L132.991 101.473Z" id="Fill_12"/>
<path d="M84.7768 129.286L100 155.67L115.223 129.286L84.7768 129.286Z" id="Fill_13"/>
<path d="M117.723 129.286L132.991 155.714L148.259 129.286L117.723 129.286Z" id="Fill_14"/>
<path d="M83.4821 130L68.2589 156.429L98.75 156.429L83.4821 130Z" id="Fill_15"/>
<path d="M149.464 130L134.196 156.429L164.732 156.429L149.464 130Z" id="Fill_16"/>
<path d="M68.2143 157.857L83.4821 184.286L98.75 157.857L68.2143 157.857Z" id="Fill_17"/>
<path d="M134.241 157.857L149.509 184.286L164.732 157.857L134.241 157.857Z" id="Fill_18"/>
<path d="M67.0089 158.527L51.7411 185L82.2768 185L67.0089 158.527Z" id="Fill_19"/>
<path d="M149.5 15.2812C149.435 15.3934 149.359 15.5146 149.312 15.5938C145.495 22.201 121.348 63.9867 117.531 70.5938C117.375 70.8616 117.063 71.4197 116.906 71.6875L116.469 72.4062L116.031 71.6875C115.875 71.4196 115.563 70.8616 115.406 70.5938C111.601 63.9981 87.4935 22.2526 83.6875 15.6562C83.6379 15.5712 83.5711 15.4344 83.5 15.3125C83.4255 15.4401 83.3329 15.5678 83.2812 15.6562C79.4643 22.2522 71.8482 35.4353 68.0312 42.0312C67.9158 42.2292 67.7225 42.5382 67.5625 42.8125C67.7275 43.0954 67.9375 43.4732 68.0625 43.6875C71.8796 50.295 95.9957 92.0807 99.8125 98.6875C99.9688 98.9554 100.281 99.4821 100.438 99.75L100.594 100L100.438 100.25C100.281 100.518 99.9688 101.045 99.8125 101.312C95.9956 107.919 55.3792 178.288 51.5625 184.906C51.5163 184.985 51.4404 185.107 51.375 185.219C51.5081 185.219 51.6562 185.219 51.75 185.219C59.3839 185.219 74.6473 185.219 82.2812 185.219C82.5191 185.219 82.9018 185.219 83.2188 185.219C83.3711 184.949 83.5423 184.608 83.6562 184.406L83.6875 184.406C87.5043 177.799 111.6 136.002 115.406 129.406C115.563 129.138 115.875 128.58 116.031 128.312L116.469 127.594L116.906 128.312C117.063 128.58 117.375 129.138 117.531 129.406C121.348 136.013 145.495 177.799 149.312 184.406C149.359 184.485 149.435 184.607 149.5 184.719C149.565 184.607 149.641 184.485 149.688 184.406C153.493 177.799 161.132 164.576 164.938 157.969C165.056 157.765 165.244 157.434 165.406 157.156C165.244 156.877 165.057 156.518 164.938 156.312C161.12 149.705 136.993 107.971 133.188 101.375C133.031 101.107 132.719 100.549 132.562 100.281L132.5 100.188L132.5 100.031C132.5 100.02 132.5 100.011 132.5 100L132.5 99.875L132.562 99.75C132.719 99.4821 133.031 98.9554 133.188 98.6875C136.994 92.0797 161.12 50.295 164.938 43.6875C165.057 43.4823 165.244 43.1225 165.406 42.8438C165.244 42.5658 165.056 42.2351 164.938 42.0312C161.132 35.4241 153.493 22.2009 149.688 15.5938C149.641 15.5146 149.565 15.3934 149.5 15.2812Z" id="Fill_20"/>
<path d="M51.7411 15L67.0089 41.4732L82.2768 15L51.7411 15Z" id="Fill_21"/>
<path d="M117.723 15L132.991 41.4732L148.259 15L117.723 15Z" id="Fill_22"/>
<path d="M50.4911 15.7143L35.2679 42.1429L65.7589 42.1429L50.4911 15.7143Z" id="Fill_23"/>
<path d="M116.518 15.7143L101.25 42.1429L131.786 42.1429L116.518 15.7143Z" id="Fill_24"/>
<path d="M35.2679 43.5714L50.5357 70L65.8036 43.5714L35.2679 43.5714Z" id="Fill_25"/>
<path d="M101.25 43.5714L116.518 70L131.786 43.5714L101.25 43.5714Z" id="Fill_26"/>
<path d="M67.0089 44.2857L51.7411 70.7143L82.2768 70.7143L67.0089 44.2857Z" id="Fill_27"/>
<path d="M51.7857 72.1429L67.0089 98.5268L82.2768 72.1429L51.7857 72.1429Z" id="Fill_28"/>
<path d="M83.5268 72.9018L68.2589 99.2857L98.75 99.2857L83.5268 72.9018Z" id="Fill_29"/>
<path d="M68.2589 100.714L83.5268 127.143L98.75 100.714L68.2589 100.714Z" id="Fill_30"/>
<path d="M67.0089 101.429L51.7857 127.857L82.2768 127.857L67.0089 101.429Z" id="Fill_31"/>
<path d="M51.7411 129.286L67.0089 155.714L82.2768 129.286L51.7411 129.286Z" id="Fill_32"/>
<path d="M50.5357 130L35.2679 156.429L65.8036 156.429L50.5357 130Z" id="Fill_33"/>
<path d="M116.473 130L101.25 156.429L131.741 156.429L116.473 130Z" id="Fill_34"/>
<path d="M35.2679 157.857L50.4911 184.286L65.7589 157.857L35.2679 157.857Z" id="Fill_35"/>
<path d="M101.25 157.857L116.518 184.286L131.786 157.857L101.25 157.857Z" id="Fill_36"/>
<path d="M132.991 158.527L117.723 185L148.259 185L132.991 158.527Z" id="Fill_37"/>
<path d="M34.0179 158.616L18.75 185L49.2411 185L34.0179 158.616Z" id="Fill_38"/>
</defs>
<g id="图层-1-复制" vectornator:layerName="图层 1 复制">
<g opacity="1">
<g opacity="0">
<g opacity="1">
<use fill="#ffffff" fill-rule="nonzero" stroke="none" xlink:href="#Fill"/>
<mask height="29.3886" id="StrokeMask" maskUnits="userSpaceOnUse" width="33.4511" x="132.761" y="14.2343">
<rect fill="#ffffff" height="29.3886" stroke="none" width="33.4511" x="132.761" y="14.2343"/>
<use fill="#000000" fill-rule="evenodd" stroke="none" xlink:href="#Fill"/>
</mask>
<use fill="none" mask="url(#StrokeMask)" stroke="#ffffff" stroke-linecap="butt" stroke-linejoin="round" stroke-width="2.96" xlink:href="#Fill"/>
</g>
<g opacity="1">
<use fill="#ffffff" fill-rule="nonzero" stroke="none" xlink:href="#Fill_2"/>
<mask height="29.3439" id="StrokeMask_2" maskUnits="userSpaceOnUse" width="33.4511" x="66.7343" y="14.2789">
<rect fill="#ffffff" height="29.3439" stroke="none" width="33.4511" x="66.7343" y="14.2789"/>
<use fill="#000000" fill-rule="evenodd" stroke="none" xlink:href="#Fill_2"/>
</mask>
<use fill="none" mask="url(#StrokeMask_2)" stroke="#ffffff" stroke-linecap="butt" stroke-linejoin="round" stroke-width="2.96" xlink:href="#Fill_2"/>
</g>
<g opacity="1">
<use fill="#ffffff" fill-rule="nonzero" stroke="none" xlink:href="#Fill_3"/>
<mask height="29.3886" id="StrokeMask_3" maskUnits="userSpaceOnUse" width="33.4511" x="66.7789" y="42.0914">
<rect fill="#ffffff" height="29.3886" stroke="none" width="33.4511" x="66.7789" y="42.0914"/>
<use fill="#000000" fill-rule="evenodd" stroke="none" xlink:href="#Fill_3"/>
</mask>
<use fill="none" mask="url(#StrokeMask_3)" stroke="#ffffff" stroke-linecap="butt" stroke-linejoin="round" stroke-width="2.96" xlink:href="#Fill_3"/>
</g>
<g opacity="1">
<use fill="#ffffff" fill-rule="nonzero" stroke="none" xlink:href="#Fill_4"/>
<mask height="29.3886" id="StrokeMask_4" maskUnits="userSpaceOnUse" width="33.4957" x="132.716" y="42.0914">
<rect fill="#ffffff" height="29.3886" stroke="none" width="33.4957" x="132.716" y="42.0914"/>
<use fill="#000000" fill-rule="evenodd" stroke="none" xlink:href="#Fill_4"/>
</mask>
<use fill="none" mask="url(#StrokeMask_4)" stroke="#ffffff" stroke-linecap="butt" stroke-linejoin="round" stroke-width="2.96" xlink:href="#Fill_4"/>
</g>
<g opacity="1">
<use fill="#ffffff" fill-rule="nonzero" stroke="none" xlink:href="#Fill_5"/>
<mask height="29.3886" id="StrokeMask_5" maskUnits="userSpaceOnUse" width="33.4957" x="116.243" y="42.8057">
<rect fill="#ffffff" height="29.3886" stroke="none" width="33.4957" x="116.243" y="42.8057"/>
<use fill="#000000" fill-rule="evenodd" stroke="none" xlink:href="#Fill_5"/>
</mask>
<use fill="none" mask="url(#StrokeMask_5)" stroke="#ffffff" stroke-linecap="butt" stroke-linejoin="round" stroke-width="2.96" xlink:href="#Fill_5"/>
</g>
<g opacity="1">
<use fill="#ffffff" fill-rule="nonzero" stroke="none" xlink:href="#Fill_6"/>
<mask height="29.3439" id="StrokeMask_6" maskUnits="userSpaceOnUse" width="33.4064" x="83.2968" y="42.8504">
<rect fill="#ffffff" height="29.3439" stroke="none" width="33.4064" x="83.2968" y="42.8504"/>
<use fill="#000000" fill-rule="evenodd" stroke="none" xlink:href="#Fill_6"/>
</mask>
<use fill="none" mask="url(#StrokeMask_6)" stroke="#ffffff" stroke-linecap="butt" stroke-linejoin="round" stroke-width="2.96" xlink:href="#Fill_6"/>
</g>
<g opacity="1">
<use fill="#ffffff" fill-rule="nonzero" stroke="none" xlink:href="#Fill_7"/>
<mask height="29.3886" id="StrokeMask_7" maskUnits="userSpaceOnUse" width="33.4957" x="83.2521" y="70.6629">
<rect fill="#ffffff" height="29.3886" stroke="none" width="33.4957" x="83.2521" y="70.6629"/>
<use fill="#000000" fill-rule="evenodd" stroke="none" xlink:href="#Fill_7"/>
</mask>
<use fill="none" mask="url(#StrokeMask_7)" stroke="#ffffff" stroke-linecap="butt" stroke-linejoin="round" stroke-width="2.96" xlink:href="#Fill_7"/>
</g>
<g opacity="1">
<use fill="#ffffff" fill-rule="nonzero" stroke="none" xlink:href="#Fill_8"/>
<mask height="29.3886" id="StrokeMask_8" maskUnits="userSpaceOnUse" width="33.4511" x="116.243" y="70.6629">
<rect fill="#ffffff" height="29.3886" stroke="none" width="33.4511" x="116.243" y="70.6629"/>
<use fill="#000000" fill-rule="evenodd" stroke="none" xlink:href="#Fill_8"/>
</mask>
<use fill="none" mask="url(#StrokeMask_8)" stroke="#ffffff" stroke-linecap="butt" stroke-linejoin="round" stroke-width="2.96" xlink:href="#Fill_8"/>
</g>
<g opacity="1">
<use fill="#ffffff" fill-rule="nonzero" stroke="none" xlink:href="#Fill_9"/>
<mask height="29.3886" id="StrokeMask_9" maskUnits="userSpaceOnUse" width="33.4511" x="99.77" y="71.3771">
<rect fill="#ffffff" height="29.3886" stroke="none" width="33.4511" x="99.77" y="71.3771"/>
<use fill="#000000" fill-rule="evenodd" stroke="none" xlink:href="#Fill_9"/>
</mask>
<use fill="none" mask="url(#StrokeMask_9)" stroke="#ffffff" stroke-linecap="butt" stroke-linejoin="round" stroke-width="2.96" xlink:href="#Fill_9"/>
</g>
<g opacity="1">
<use fill="#ffffff" fill-rule="nonzero" stroke="none" xlink:href="#Fill_10"/>
<mask height="29.3439" id="StrokeMask_10" maskUnits="userSpaceOnUse" width="33.4511" x="99.77" y="99.2343">
<rect fill="#ffffff" height="29.3439" stroke="none" width="33.4511" x="99.77" y="99.2343"/>
<use fill="#000000" fill-rule="evenodd" stroke="none" xlink:href="#Fill_10"/>
</mask>
<use fill="none" mask="url(#StrokeMask_10)" stroke="#ffffff" stroke-linecap="butt" stroke-linejoin="round" stroke-width="2.96" xlink:href="#Fill_10"/>
</g>
<g opacity="1">
<use fill="#ffffff" fill-rule="nonzero" stroke="none" xlink:href="#Fill_11"/>
<mask height="29.3886" id="StrokeMask_11" maskUnits="userSpaceOnUse" width="33.4957" x="83.2521" y="99.9486">
<rect fill="#ffffff" height="29.3886" stroke="none" width="33.4957" x="83.2521" y="99.9486"/>
<use fill="#000000" fill-rule="evenodd" stroke="none" xlink:href="#Fill_11"/>
</mask>
<use fill="none" mask="url(#StrokeMask_11)" stroke="#ffffff" stroke-linecap="butt" stroke-linejoin="round" stroke-width="2.96" xlink:href="#Fill_11"/>
</g>
<g opacity="1">
<use fill="#ffffff" fill-rule="nonzero" stroke="none" xlink:href="#Fill_12"/>
<mask height="29.3439" id="StrokeMask_12" maskUnits="userSpaceOnUse" width="33.4511" x="116.243" y="99.9932">
<rect fill="#ffffff" height="29.3439" stroke="none" width="33.4511" x="116.243" y="99.9932"/>
<use fill="#000000" fill-rule="evenodd" stroke="none" xlink:href="#Fill_12"/>
</mask>
<use fill="none" mask="url(#StrokeMask_12)" stroke="#ffffff" stroke-linecap="butt" stroke-linejoin="round" stroke-width="2.96" xlink:href="#Fill_12"/>
</g>
<g opacity="1">
<use fill="#ffffff" fill-rule="nonzero" stroke="none" xlink:href="#Fill_13"/>
<mask height="29.3439" id="StrokeMask_13" maskUnits="userSpaceOnUse" width="33.4064" x="83.2968" y="127.806">
<rect fill="#ffffff" height="29.3439" stroke="none" width="33.4064" x="83.2968" y="127.806"/>
<use fill="#000000" fill-rule="evenodd" stroke="none" xlink:href="#Fill_13"/>
</mask>
<use fill="none" mask="url(#StrokeMask_13)" stroke="#ffffff" stroke-linecap="butt" stroke-linejoin="round" stroke-width="2.96" xlink:href="#Fill_13"/>
</g>
<g opacity="1">
<use fill="#ffffff" fill-rule="nonzero" stroke="none" xlink:href="#Fill_14"/>
<mask height="29.3886" id="StrokeMask_14" maskUnits="userSpaceOnUse" width="33.4957" x="116.243" y="127.806">
<rect fill="#ffffff" height="29.3886" stroke="none" width="33.4957" x="116.243" y="127.806"/>
<use fill="#000000" fill-rule="evenodd" stroke="none" xlink:href="#Fill_14"/>
</mask>
<use fill="none" mask="url(#StrokeMask_14)" stroke="#ffffff" stroke-linecap="butt" stroke-linejoin="round" stroke-width="2.96" xlink:href="#Fill_14"/>
</g>
<g opacity="1">
<use fill="#ffffff" fill-rule="nonzero" stroke="none" xlink:href="#Fill_15"/>
<mask height="29.3886" id="StrokeMask_15" maskUnits="userSpaceOnUse" width="33.4511" x="66.7789" y="128.52">
<rect fill="#ffffff" height="29.3886" stroke="none" width="33.4511" x="66.7789" y="128.52"/>
<use fill="#000000" fill-rule="evenodd" stroke="none" xlink:href="#Fill_15"/>
</mask>
<use fill="none" mask="url(#StrokeMask_15)" stroke="#ffffff" stroke-linecap="butt" stroke-linejoin="round" stroke-width="2.96" xlink:href="#Fill_15"/>
</g>
<g opacity="1">
<use fill="#ffffff" fill-rule="nonzero" stroke="none" xlink:href="#Fill_16"/>
<mask height="29.3886" id="StrokeMask_16" maskUnits="userSpaceOnUse" width="33.4957" x="132.716" y="128.52">
<rect fill="#ffffff" height="29.3886" stroke="none" width="33.4957" x="132.716" y="128.52"/>
<use fill="#000000" fill-rule="evenodd" stroke="none" xlink:href="#Fill_16"/>
</mask>
<use fill="none" mask="url(#StrokeMask_16)" stroke="#ffffff" stroke-linecap="butt" stroke-linejoin="round" stroke-width="2.96" xlink:href="#Fill_16"/>
</g>
<g opacity="1">
<use fill="#ffffff" fill-rule="nonzero" stroke="none" xlink:href="#Fill_17"/>
<mask height="29.3886" id="StrokeMask_17" maskUnits="userSpaceOnUse" width="33.4957" x="66.7343" y="156.377">
<rect fill="#ffffff" height="29.3886" stroke="none" width="33.4957" x="66.7343" y="156.377"/>
<use fill="#000000" fill-rule="evenodd" stroke="none" xlink:href="#Fill_17"/>
</mask>
<use fill="none" mask="url(#StrokeMask_17)" stroke="#ffffff" stroke-linecap="butt" stroke-linejoin="round" stroke-width="2.96" xlink:href="#Fill_17"/>
</g>
<g opacity="1">
<use fill="#ffffff" fill-rule="nonzero" stroke="none" xlink:href="#Fill_18"/>
<mask height="29.3886" id="StrokeMask_18" maskUnits="userSpaceOnUse" width="33.4511" x="132.761" y="156.377">
<rect fill="#ffffff" height="29.3886" stroke="none" width="33.4511" x="132.761" y="156.377"/>
<use fill="#000000" fill-rule="evenodd" stroke="none" xlink:href="#Fill_18"/>
</mask>
<use fill="none" mask="url(#StrokeMask_18)" stroke="#ffffff" stroke-linecap="butt" stroke-linejoin="round" stroke-width="2.96" xlink:href="#Fill_18"/>
</g>
<g opacity="1">
<use fill="#ffffff" fill-rule="nonzero" stroke="none" xlink:href="#Fill_19"/>
<mask height="29.4332" id="StrokeMask_19" maskUnits="userSpaceOnUse" width="33.4957" x="50.2611" y="157.047">
<rect fill="#ffffff" height="29.4332" stroke="none" width="33.4957" x="50.2611" y="157.047"/>
<use fill="#000000" fill-rule="evenodd" stroke="none" xlink:href="#Fill_19"/>
</mask>
<use fill="none" mask="url(#StrokeMask_19)" stroke="#ffffff" stroke-linecap="butt" stroke-linejoin="round" stroke-width="2.96" xlink:href="#Fill_19"/>
</g>
</g>
<g opacity="0" vectornator:layerName="曲线">
<use fill="#ffffff" fill-rule="nonzero" stroke="none" xlink:href="#Fill_20"/>
<mask height="172.898" id="StrokeMask_20" maskUnits="userSpaceOnUse" width="116.991" x="49.895" y="13.8012">
<rect fill="#ffffff" height="172.898" stroke="none" width="116.991" x="49.895" y="13.8012"/>
<use fill="#000000" fill-rule="evenodd" stroke="none" xlink:href="#Fill_20"/>
</mask>
<use fill="none" mask="url(#StrokeMask_20)" stroke="#ffffff" stroke-linecap="butt" stroke-linejoin="round" stroke-width="2.96" xlink:href="#Fill_20"/>
</g>
<g opacity="1" vectornator:layerName="成组">
<g opacity="1">
<use fill="#212121" fill-rule="nonzero" stroke="none" xlink:href="#Fill_21"/>
<mask height="29.4332" id="StrokeMask_21" maskUnits="userSpaceOnUse" width="33.4957" x="50.2611" y="13.52">
<rect fill="#ffffff" height="29.4332" stroke="none" width="33.4957" x="50.2611" y="13.52"/>
<use fill="#000000" fill-rule="evenodd" stroke="none" xlink:href="#Fill_21"/>
</mask>
<use fill="none" mask="url(#StrokeMask_21)" stroke="#ffffff" stroke-linecap="butt" stroke-linejoin="round" stroke-width="2.96" xlink:href="#Fill_21"/>
</g>
<g opacity="1">
<use fill="#212121" fill-rule="nonzero" stroke="none" xlink:href="#Fill_22"/>
<mask height="29.4332" id="StrokeMask_22" maskUnits="userSpaceOnUse" width="33.4957" x="116.243" y="13.52">
<rect fill="#ffffff" height="29.4332" stroke="none" width="33.4957" x="116.243" y="13.52"/>
<use fill="#000000" fill-rule="evenodd" stroke="none" xlink:href="#Fill_22"/>
</mask>
<use fill="none" mask="url(#StrokeMask_22)" stroke="#ffffff" stroke-linecap="butt" stroke-linejoin="round" stroke-width="2.96" xlink:href="#Fill_22"/>
</g>
<g opacity="1">
<use fill="#212121" fill-rule="nonzero" stroke="none" xlink:href="#Fill_23"/>
<mask height="29.3886" id="StrokeMask_23" maskUnits="userSpaceOnUse" width="33.4511" x="33.7879" y="14.2343">
<rect fill="#ffffff" height="29.3886" stroke="none" width="33.4511" x="33.7879" y="14.2343"/>
<use fill="#000000" fill-rule="evenodd" stroke="none" xlink:href="#Fill_23"/>
</mask>
<use fill="none" mask="url(#StrokeMask_23)" stroke="#ffffff" stroke-linecap="butt" stroke-linejoin="round" stroke-width="2.96" xlink:href="#Fill_23"/>
</g>
<g opacity="1">
<use fill="#212121" fill-rule="nonzero" stroke="none" xlink:href="#Fill_24"/>
<mask height="29.3886" id="StrokeMask_24" maskUnits="userSpaceOnUse" width="33.4957" x="99.77" y="14.2343">
<rect fill="#ffffff" height="29.3886" stroke="none" width="33.4957" x="99.77" y="14.2343"/>
<use fill="#000000" fill-rule="evenodd" stroke="none" xlink:href="#Fill_24"/>
</mask>
<use fill="none" mask="url(#StrokeMask_24)" stroke="#ffffff" stroke-linecap="butt" stroke-linejoin="round" stroke-width="2.96" xlink:href="#Fill_24"/>
</g>
<g opacity="1">
<use fill="#212121" fill-rule="nonzero" stroke="none" xlink:href="#Fill_25"/>
<mask height="29.3886" id="StrokeMask_25" maskUnits="userSpaceOnUse" width="33.4957" x="33.7879" y="42.0914">
<rect fill="#ffffff" height="29.3886" stroke="none" width="33.4957" x="33.7879" y="42.0914"/>
<use fill="#000000" fill-rule="evenodd" stroke="none" xlink:href="#Fill_25"/>
</mask>
<use fill="none" mask="url(#StrokeMask_25)" stroke="#ffffff" stroke-linecap="butt" stroke-linejoin="round" stroke-width="2.96" xlink:href="#Fill_25"/>
</g>
<g opacity="1">
<use fill="#212121" fill-rule="nonzero" stroke="none" xlink:href="#Fill_26"/>
<mask height="29.3886" id="StrokeMask_26" maskUnits="userSpaceOnUse" width="33.4957" x="99.77" y="42.0914">
<rect fill="#ffffff" height="29.3886" stroke="none" width="33.4957" x="99.77" y="42.0914"/>
<use fill="#000000" fill-rule="evenodd" stroke="none" xlink:href="#Fill_26"/>
</mask>
<use fill="none" mask="url(#StrokeMask_26)" stroke="#ffffff" stroke-linecap="butt" stroke-linejoin="round" stroke-width="2.96" xlink:href="#Fill_26"/>
</g>
<g opacity="1">
<use fill="#212121" fill-rule="nonzero" stroke="none" xlink:href="#Fill_27"/>
<mask height="29.3886" id="StrokeMask_27" maskUnits="userSpaceOnUse" width="33.4957" x="50.2611" y="42.8057">
<rect fill="#ffffff" height="29.3886" stroke="none" width="33.4957" x="50.2611" y="42.8057"/>
<use fill="#000000" fill-rule="evenodd" stroke="none" xlink:href="#Fill_27"/>
</mask>
<use fill="none" mask="url(#StrokeMask_27)" stroke="#ffffff" stroke-linecap="butt" stroke-linejoin="round" stroke-width="2.96" xlink:href="#Fill_27"/>
</g>
<g opacity="1">
<use fill="#212121" fill-rule="nonzero" stroke="none" xlink:href="#Fill_28"/>
<mask height="29.3439" id="StrokeMask_28" maskUnits="userSpaceOnUse" width="33.4511" x="50.3057" y="70.6629">
<rect fill="#ffffff" height="29.3439" stroke="none" width="33.4511" x="50.3057" y="70.6629"/>
<use fill="#000000" fill-rule="evenodd" stroke="none" xlink:href="#Fill_28"/>
</mask>
<use fill="none" mask="url(#StrokeMask_28)" stroke="#ffffff" stroke-linecap="butt" stroke-linejoin="round" stroke-width="2.96" xlink:href="#Fill_28"/>
</g>
<g opacity="1">
<use fill="#212121" fill-rule="nonzero" stroke="none" xlink:href="#Fill_29"/>
<mask height="29.3439" id="StrokeMask_29" maskUnits="userSpaceOnUse" width="33.4511" x="66.7789" y="71.4218">
<rect fill="#ffffff" height="29.3439" stroke="none" width="33.4511" x="66.7789" y="71.4218"/>
<use fill="#000000" fill-rule="evenodd" stroke="none" xlink:href="#Fill_29"/>
</mask>
<use fill="none" mask="url(#StrokeMask_29)" stroke="#ffffff" stroke-linecap="butt" stroke-linejoin="round" stroke-width="2.96" xlink:href="#Fill_29"/>
</g>
<g opacity="1">
<use fill="#212121" fill-rule="nonzero" stroke="none" xlink:href="#Fill_30"/>
<mask height="29.3886" id="StrokeMask_30" maskUnits="userSpaceOnUse" width="33.4511" x="66.7789" y="99.2343">
<rect fill="#ffffff" height="29.3886" stroke="none" width="33.4511" x="66.7789" y="99.2343"/>
<use fill="#000000" fill-rule="evenodd" stroke="none" xlink:href="#Fill_30"/>
</mask>
<use fill="none" mask="url(#StrokeMask_30)" stroke="#ffffff" stroke-linecap="butt" stroke-linejoin="round" stroke-width="2.96" xlink:href="#Fill_30"/>
</g>
<g opacity="1">
<use fill="#212121" fill-rule="nonzero" stroke="none" xlink:href="#Fill_31"/>
<mask height="29.3886" id="StrokeMask_31" maskUnits="userSpaceOnUse" width="33.4511" x="50.3057" y="99.9486">
<rect fill="#ffffff" height="29.3886" stroke="none" width="33.4511" x="50.3057" y="99.9486"/>
<use fill="#000000" fill-rule="evenodd" stroke="none" xlink:href="#Fill_31"/>
</mask>
<use fill="none" mask="url(#StrokeMask_31)" stroke="#ffffff" stroke-linecap="butt" stroke-linejoin="round" stroke-width="2.96" xlink:href="#Fill_31"/>
</g>
<g opacity="1">
<use fill="#212121" fill-rule="nonzero" stroke="none" xlink:href="#Fill_32"/>
<mask height="29.3886" id="StrokeMask_32" maskUnits="userSpaceOnUse" width="33.4957" x="50.2611" y="127.806">
<rect fill="#ffffff" height="29.3886" stroke="none" width="33.4957" x="50.2611" y="127.806"/>
<use fill="#000000" fill-rule="evenodd" stroke="none" xlink:href="#Fill_32"/>
</mask>
<use fill="none" mask="url(#StrokeMask_32)" stroke="#ffffff" stroke-linecap="butt" stroke-linejoin="round" stroke-width="2.96" xlink:href="#Fill_32"/>
</g>
<g opacity="1">
<use fill="#212121" fill-rule="nonzero" stroke="none" xlink:href="#Fill_33"/>
<mask height="29.3886" id="StrokeMask_33" maskUnits="userSpaceOnUse" width="33.4957" x="33.7879" y="128.52">
<rect fill="#ffffff" height="29.3886" stroke="none" width="33.4957" x="33.7879" y="128.52"/>
<use fill="#000000" fill-rule="evenodd" stroke="none" xlink:href="#Fill_33"/>
</mask>
<use fill="none" mask="url(#StrokeMask_33)" stroke="#ffffff" stroke-linecap="butt" stroke-linejoin="round" stroke-width="2.96" xlink:href="#Fill_33"/>
</g>
<g opacity="1">
<use fill="#212121" fill-rule="nonzero" stroke="none" xlink:href="#Fill_34"/>
<mask height="29.3886" id="StrokeMask_34" maskUnits="userSpaceOnUse" width="33.4511" x="99.77" y="128.52">
<rect fill="#ffffff" height="29.3886" stroke="none" width="33.4511" x="99.77" y="128.52"/>
<use fill="#000000" fill-rule="evenodd" stroke="none" xlink:href="#Fill_34"/>
</mask>
<use fill="none" mask="url(#StrokeMask_34)" stroke="#ffffff" stroke-linecap="butt" stroke-linejoin="round" stroke-width="2.96" xlink:href="#Fill_34"/>
</g>
<g opacity="1">
<use fill="#212121" fill-rule="nonzero" stroke="none" xlink:href="#Fill_35"/>
<mask height="29.3886" id="StrokeMask_35" maskUnits="userSpaceOnUse" width="33.4511" x="33.7879" y="156.377">
<rect fill="#ffffff" height="29.3886" stroke="none" width="33.4511" x="33.7879" y="156.377"/>
<use fill="#000000" fill-rule="evenodd" stroke="none" xlink:href="#Fill_35"/>
</mask>
<use fill="none" mask="url(#StrokeMask_35)" stroke="#ffffff" stroke-linecap="butt" stroke-linejoin="round" stroke-width="2.96" xlink:href="#Fill_35"/>
</g>
<g opacity="1">
<use fill="#212121" fill-rule="nonzero" stroke="none" xlink:href="#Fill_36"/>
<mask height="29.3886" id="StrokeMask_36" maskUnits="userSpaceOnUse" width="33.4957" x="99.77" y="156.377">
<rect fill="#ffffff" height="29.3886" stroke="none" width="33.4957" x="99.77" y="156.377"/>
<use fill="#000000" fill-rule="evenodd" stroke="none" xlink:href="#Fill_36"/>
</mask>
<use fill="none" mask="url(#StrokeMask_36)" stroke="#ffffff" stroke-linecap="butt" stroke-linejoin="round" stroke-width="2.96" xlink:href="#Fill_36"/>
</g>
<g opacity="1">
<use fill="#212121" fill-rule="nonzero" stroke="none" xlink:href="#Fill_37"/>
<mask height="29.4332" id="StrokeMask_37" maskUnits="userSpaceOnUse" width="33.4957" x="116.243" y="157.047">
<rect fill="#ffffff" height="29.4332" stroke="none" width="33.4957" x="116.243" y="157.047"/>
<use fill="#000000" fill-rule="evenodd" stroke="none" xlink:href="#Fill_37"/>
</mask>
<use fill="none" mask="url(#StrokeMask_37)" stroke="#ffffff" stroke-linecap="butt" stroke-linejoin="round" stroke-width="2.96" xlink:href="#Fill_37"/>
</g>
<g opacity="1">
<use fill="#212121" fill-rule="nonzero" stroke="none" xlink:href="#Fill_38"/>
<mask height="29.3439" id="StrokeMask_38" maskUnits="userSpaceOnUse" width="33.4511" x="17.27" y="157.136">
<rect fill="#ffffff" height="29.3439" stroke="none" width="33.4511" x="17.27" y="157.136"/>
<use fill="#000000" fill-rule="evenodd" stroke="none" xlink:href="#Fill_38"/>
</mask>
<use fill="none" mask="url(#StrokeMask_38)" stroke="#ffffff" stroke-linecap="butt" stroke-linejoin="round" stroke-width="2.96" xlink:href="#Fill_38"/>
</g>
</g>
</g>
</g>
</svg>
